<svg data-name="Groupe 42089" xmlns="http://www.w3.org/2000/svg" width="78.806" height="136.508"><defs><clipPath id="a"><path data-name="Rectangle 4307" fill="none" stroke="#0d0e37" stroke-width="2" d="M0 0h78.806v136.508H0z"/></clipPath></defs><g data-name="Groupe 42089" clip-path="url(#a)" fill="none" stroke="#0d0e37" stroke-miterlimit="10" stroke-width="2"><path data-name="Tracé 159689" d="M32.049 64.065h0a2.323 2.323 0 01-2.323-2.322V50.162h4.645v11.581a2.323 2.323 0 01-2.322 2.322z"/><path data-name="Tracé 159690" d="M36.888 64.065h0a2.323 2.323 0 01-2.323-2.322V50.162h4.645v11.581a2.323 2.323 0 01-2.322 2.322z"/><path data-name="Tracé 159691" d="M41.725 64.065h0a2.323 2.323 0 01-2.325-2.322V50.162h4.645v11.581a2.323 2.323 0 01-2.32 2.322z"/><path data-name="Tracé 159692" d="M46.564 64.065h0a2.323 2.323 0 01-2.322-2.322V50.162h4.645v11.581a2.323 2.323 0 01-2.323 2.322z"/><path data-name="Tracé 159693" d="M48.888 59.366a38.9 38.9 0 11-19.162.049"/><path data-name="Ligne 31" d="M39.21 0v50.71"/><path data-name="Ligne 32" d="M12.233 69.263h54.339"/><path data-name="Ligne 33" d="M2.782 83.943h73.456"/><path data-name="Ligne 34" d="M8.561 121.058h61.898"/></g></svg>