<svg data-name="Groupe 42086" xmlns="http://www.w3.org/2000/svg" width="97.478" height="103"><defs><clipPath id="a"><path data-name="Rectangle 4303" fill="none" stroke="#ced7d2" stroke-width="3" d="M0 0h97.478v103H0z"/></clipPath></defs><g data-name="Groupe 42085" clip-path="url(#a)"><path data-name="Tracé 159671" d="M82.975 29.545l-.364-.383c-1.851-1.947-2.376-4.488-1.168-5.631l5.145-4.845a4.782 4.782 0 016.747.329l.364.377a4.8 4.8 0 01-.019 6.76l-5.145 4.854c-1.206 1.143-3.709.486-5.56-1.461z" fill="none" stroke="#ced7d2" stroke-miterlimit="10" stroke-width="3"/><path data-name="Tracé 159672" d="M39.936 101.309s4.188-4.315 6.454-6.454c17.529 1.283 24.054-10.852 25.8-12.895" fill="none" stroke="#ced7d2" stroke-miterlimit="10" stroke-width="3"/><path data-name="Tracé 159673" d="M84.308 69.786l-.364-.313c-1.858-1.609-2.547-3.875-1.532-5.049l4.309-4.96a4.422 4.422 0 016.218-.37l.357.313a4.414 4.414 0 01.543 6.2l-4.315 4.96c-1.008 1.173-3.357.822-5.216-.781z" fill="none" stroke="#ced7d2" stroke-miterlimit="10" stroke-width="3"/><path data-name="Tracé 159674" d="M42.087 86.25c4.666-13.335.109-25.311-4.124-30.641a61.138 61.138 0 003.09-15.4 13.247 13.247 0 00-2.783-8.918c-1.628-2.285-5.6-1.762-6.4.8-3.511 11.248-4.169 14.312-6.345 19.962-2.439 6.32-1.041 15.187-2.247 17.785-.243.517-4.839 7.814-4.839 7.814" fill="none" stroke="#ced7d2" stroke-miterlimit="10" stroke-width="3"/><path data-name="Tracé 159675" d="M84.341 56.266l-.37-.319c-1.89-1.628-2.592-3.939-1.558-5.132l4.387-5.05a4.493 4.493 0 016.32-.377l.37.319a4.494 4.494 0 01.555 6.307l-4.392 5.043c-1.029 1.201-3.423.843-5.312-.791z" fill="none" stroke="#ced7d2" stroke-miterlimit="10" stroke-width="3"/><path data-name="Tracé 159676" d="M84.34 43.09l-.37-.319c-1.89-1.628-2.592-3.939-1.564-5.132l4.392-5.05a4.493 4.493 0 016.32-.377l.37.319a4.488 4.488 0 01.549 6.307l-4.386 5.049c-1.034 1.195-3.421.835-5.311-.797z" fill="none" stroke="#ced7d2" stroke-miterlimit="10" stroke-width="3"/><path data-name="Ligne 25" fill="none" stroke="#ced7d2" stroke-miterlimit="10" stroke-width="3" d="M57.143 75.505h6.454"/><path data-name="Tracé 159677" d="M85.094 19.598V8.841a6.451 6.451 0 00-6.454-6.447H42.087a6.446 6.446 0 00-6.447 6.447v21.507" fill="none" stroke="#ced7d2" stroke-miterlimit="10" stroke-width="3"/><path data-name="Tracé 159678" d="M42.087 81.96h36.559a6.451 6.451 0 006.448-6.453v-4.3" fill="none" stroke="#ced7d2" stroke-miterlimit="10" stroke-width="3"/><path data-name="Tracé 159679" d="M42.088 101.308L14.134 73.354 3.39 84.11l17.2 17.2" fill="none" stroke="#ced7d2" stroke-miterlimit="10" stroke-width="3"/><path data-name="Ligne 26" fill="none" stroke="#ced7d2" stroke-miterlimit="10" stroke-width="3" d="M14.135 84.108l2.151 2.145"/><path data-name="Ligne 27" fill="none" stroke="#ced7d2" stroke-miterlimit="10" stroke-width="3" d="M44.239 69.053h38.704"/><path data-name="Ligne 28" fill="none" stroke="#ced7d2" stroke-miterlimit="10" stroke-width="3" d="M35.642 13.146h49.454"/><path data-name="Tracé 159680" d="M69.205 31.101a6.213 6.213 0 00-8.841 1.628 6.2 6.2 0 00-8.835-1.628 6.275 6.275 0 00-2.1 5.994c.562 3.671 3.53 6.262 10.935 11.663 7.411-5.4 10.373-7.992 10.935-11.663a6.27 6.27 0 00-2.094-5.994" fill="#e7b000"/></g></svg>