<svg data-name="Groupe 42088" xmlns="http://www.w3.org/2000/svg" width="86.663" height="84.626"><defs><clipPath id="a"><path data-name="Rectangle 4305" fill="none" stroke="#ced7d2" stroke-width="3" d="M0 0h86.663v84.626H0z"/></clipPath></defs><g data-name="Groupe 42087" clip-path="url(#a)"><path data-name="Ligne 29" fill="none" stroke="#ced7d2" stroke-miterlimit="10" stroke-width="3" d="M8.639 73.948l18.365-18.365"/><path data-name="Tracé 159681" d="M16.801 45.376V2.514h53.063v42.862" fill="none" stroke="#ced7d2" stroke-miterlimit="10" stroke-width="3"/><path data-name="Tracé 159682" d="M16.803 20.886S8.384 27.521 6.602 29.05s-4.089 3.19-4.089 6.12v40.824a6.123 6.123 0 006.125 6.119h34.693" fill="none" stroke="#ced7d2" stroke-miterlimit="10" stroke-width="3"/><path data-name="Ligne 30" fill="none" stroke="#ced7d2" stroke-miterlimit="10" stroke-width="3" d="M78.027 73.948L59.662 55.583"/><path data-name="Tracé 159683" d="M69.867 20.886s8.418 6.635 10.2 8.164 4.09 3.19 4.09 6.12v40.824a6.123 6.123 0 01-6.126 6.119H43.332" fill="none" stroke="#ced7d2" stroke-miterlimit="10" stroke-width="3"/><path data-name="Tracé 159684" d="M78.031 37.214L57.622 57.623c-4.075 3.485-6.957 4.082-10.2 4.082h-8.165c-3.251 0-6.126-.6-10.208-4.082L8.64 37.214" fill="none" stroke="#ced7d2" stroke-miterlimit="10" stroke-width="3"/><path data-name="Tracé 159685" d="M51.589 19.371a6.519 6.519 0 00-9.276 1.7 6.527 6.527 0 00-9.283-1.7 6.583 6.583 0 00-2.2 6.294c.59 3.854 3.7 6.575 11.481 12.245 7.775-5.67 10.885-8.392 11.481-12.245a6.6 6.6 0 00-2.205-6.294" fill="#e7b000"/></g></svg>