<svg version="1.1" id="Calque_1" xmlns="http://www.w3.org/2000/svg" x="0" y="0" viewBox="0 0 652 244.8" xml:space="preserve"><style>.st1{fill:#fff}</style><path d="M185.3 116.9c-.1-.2-.3-.4-.3-.8v-.7c-.1-.3-.1-.9-.3-1 0-.4.1-.8-.2-.8 0-.3.1-.4 0-.8 0-.3-.3-.3-.3-.7 0-.5-.1-.7-.2-1 0-.5.2-1-.1-1.5.1-.4.3-.5.3-1 .1-.2.3-.3.3-.6l.3-.6c.1-.2.2-.4.3-.7.1-.2.3-.3.4-.5v-.6c.1-.1.1-.2.2-.3v-.9c.2-.3.3-.9.5-1.2 0-.2 0-.4.1-.6.1-.1 0-.5.1-.6.2-.3.3-.7.6-.9 0-.3.1-.4.1-.6.1-.2.3-.2.3-.5 0-.2.1-.2.1-.3.1-.3.1-.7.2-1.1.1-.2.1-.4.1-.7 0-.3.2-.3.2-.4v-.6c.1-.1 0-.4.1-.5-.1-.3-.2-.6-.2-1.1v-.1l-.1-.1c0-.4.2-.6.2-.9 0-.4.1-.7.2-.9 0-.3-.1-.4-.1-.7.1-.2.1-.6.2-.9-.1-.3-.2-.6-.2-.9 0-.1.2-.3 0-.4-.1-.4.3-.2.2-.5-.1-.2-.2.1-.3 0 0-.2.1-.1.1-.3 0-.1-.1-.3-.1-.4 0-.3-.2-.6 0-.8.2-.2.2.4.3.2 0 0 .1-.2 0-.4h-.1v-.4c-.1-.2-.2-.4-.3-.7 0-.3-.1-.8-.2-1.1-.1-.1 0-.2 0-.4-.1-.1-.2-.2-.2-.4.1-.1 0-.1 0-.3.1-.1.1-.1.1-.2.1-.2 0-.5.1-.6-.2-.6-.2-1.1-.1-1.5 0-.2-.2-.2-.1-.4 0-.3-.1-.5-.1-.7v-.4c.1-.3 0-.8.1-1.2 0-.3-.1-.3-.1-.5 0-.4.1-.7.2-1.1 0-.3-.2-.5 0-.7 0-.5-.3-.9-.2-1.2 0-.3.3-.1.4-.2.8 0 1.4-.1 2.3-.1h.4c.2 0 .4-.1.7-.1h2.3c.1 0 .3-.2.5-.2.1 0 .3.1.5.1 1 .1 2.3-.2 3.4-.2.2 0 .3.1.4.1h.7c.2 0 .5-.1.7-.2.1 0 .3.1.5.1.4 0 .7-.1 1-.1.2 0 .3.1.5.1.4 0 .8-.1 1.2-.1.9 0 2-.2 2.9-.2 1.6 0 3.4-.1 5.1-.3.2 0 .3-.1.5-.1s.4.1.6.1c.3 0 .6-.1.9-.1.3 0 .5 0 .7-.2.1.1.3.1.5.2 1.3-.2 2.8-.1 4-.2.5 0 .9-.1 1.4-.2h1.2c.2 0 .5-.1.7-.1s.4.1.6.1c.1 0 .2-.1.3-.1.2 0 .6 0 1-.1.4 0 .8-.1 1.2-.1 1.7 0 3.4-.2 5.1-.3.5 0 .9-.1 1.4-.1h1.2c.9 0 1.8-.2 2.7-.2s1.7-.1 2.6-.1c1.7-.1 3.5-.2 5.2-.3.9 0 1.7-.1 2.6-.2 1.6-.1 3.3-.2 4.9-.3 1.7-.1 3.5-.2 5.2-.3.8 0 1.7-.1 2.5-.2s1.7-.2 2.6-.2c.2 0 .4.1.7.1.1 0 .2-.1.3-.1h1.1c1-.1 1.9-.2 2.9-.2.3 0 .6 0 1-.1.1 0 .2-.1.3-.1.1 0 .3.1.4.1.2 0 .3-.1.5-.1.4 0 .8.1 1.2 0 .1 0 .4-.1.7-.1.3 0 .6-.1.9 0 .8-.2 1.7-.2 2.5-.2h1.3l.1-.1c.2 0 87.2-4.1 87.5-4.1.2 0 .4.1.5.1.6 0 1.2-.1 1.8-.2.1 0 .2-.1.4-.1.4 0 .9-.1 1.4-.1 1.7-.1 3.5-.2 5.3-.3.6 0 1.2 0 1.7-.1.9-.1 1.7-.2 2.7-.3.3 0 .6.1.9 0 .2 0 .3-.1.5-.1 1-.1 2-.1 3-.2.5 0 1-.1 1.5-.1h1.4c.3 0 .6-.1 1-.1h.2c.1 0 .1-.1.2-.1 1.6-.1 3.4-.2 4.9-.3.7 0 1.4-.2 2-.2.2 0 .5.1.8 0 .2 0 .4-.2.7-.2.4-.1.8 0 1.2 0h1c.3 0 .8-.1 1.2-.1 0 0 0 .1.1.1 0 0 .1-.1.2-.1h1.1c.2 0 .4-.1.6-.1s.4.1.6.1c.5 0 1-.1 1.4-.1s.9-.1 1.3-.1c1.7-.2 3.5-.2 5.3-.4.2 0 .4-.1.6-.1s.4.1.6.1c.1 0 .2-.1.3-.1l.1.1c.1 0 .1-.1.1-.1.2 0 .4.1.6.1.5 0 1-.3 1.5 0 .3-.2.7-.1 1.1-.1.2 0 .4-.2.7-.2 0 0 .1.1.2 0 .1 0 .1-.1.1-.1h.4c.1 0 .2-.1.3-.1.2 0 .5.1.7.1s.5-.1.7-.1h.7c.4 0 .8-.2 1.2-.1h.5c.7 0 1.4 0 2.1-.1.2 0 .3 0 .5-.1.1 0 .2.1.3 0 1-.2 2.2-.1 3.3-.2.3 0 .7 0 1-.3.2 0 .2.2.4.2.3-.1.7-.1 1.2-.1h.3c.2 0 .5-.1.8-.1h.3c.1 0 .2-.1.3-.1 1.9-.1 3.8-.1 5.7-.3 1.5-.2 3.1-.2 4.6-.4 1.5-.2 3.1-.2 4.6-.3.1 0 .1.2.2.3.1.1.1.2.1.3 0 .1.1.1.1.2v.3c0 .2.2.5.2.8 0 .2.1.6-.1.8.1.3 0 .5-.1.6v.1c0 .3.1.6.1.9v.3c.1.3.2.4.3.6 0 .2-.1.5 0 .6.1.3.1.5 0 .7 0 .2.1.2.2.3.1.1 0 .2.1.3 0 .1.1.1.2.2 0 .1-.1.4.1.5 0 .2-.1.2-.1.4 0 .3.1 1 0 1.3 0 .3.2.3.3.5 0 .2-.1.5 0 .8.1.1.1.6.2.7-.1.4-.2.7-.2 1.1 0 .3.2.7.3 1 .1.3.3.9.3 1.4.1.2.1.4.2.5.1.2.2.2.2.5.1.6-.5 1-.2 1.8-.2.2-.3.4-.4.7 0 .4-.1.6-.2.9v.8c-.1.1-.2.2-.1.4.1.4-.3.3-.3.7 0 .7 0 1.3.1 2v.7c0 .3.1.7.2 1 0 .5-.2.8-.2 1.3-.2.3-.5.6-.7 1.1-.1.2-.3.3-.3.6-.2.4-.3.9-.2 1.7 0 .3-.3.3-.3.5 0 .7-.3 1.1-.5 1.6 0 .4-.2.5-.2.9s.2.8.2 1.1c0 .4-.1.4-.1.8s.3.2.3.5c-.1.1-.1.2-.1.4s.2.1.2.3c-.1.2-.3-.1-.3.1 0 .3 0 .6.1.9s.2.5.2.8v.8c.1.3.2.4.2.9.1.2.3.3.4.7.2.2.6.1.8.4 0 .2 0 .3.1.5.1.4-.2.4-.4.5-.3.2-.6.2-1 .3-.3.1-.7.2-1 .3-.6.1-1.2 0-1.7.1-.2 0-.4.2-.6.2-.3 0-.6-.1-.9 0-.2 0-.3.1-.4.1-.3 0-.4 0-.7.1-.1 0-.1.1-.1.1-.4 0-1.1.1-1.6.3-.6.2-1.5.2-2.1.2h-.7c-.3 0-.5-.2-.8-.2-.5 0-1.1.1-1.7.1h-.8c-.6 0-1.2.1-1.9.2h-1c-1 .1-2.1.3-3.2.4-1.4.1-2.7.2-4.1.3-.7 0-1.3 0-2 .1s-1.4.1-2.1.1c-.6 0-1.3.1-1.9.1s-1.2.1-1.8.1c-1.3.1-2.7.1-4.1.3-2.8.3-5.5.5-8 .8-1.3.1-2.5.2-3.8.4-2.3.3-4.7.3-7.1.4-.4 0-.7.1-1 .1h-2c-.6.1-1.3.1-2 .2-.7 0-1.4.2-2.1.2-1.2.1-2.5.1-3.9.1h-4c-.7 0-1.3.1-2 .1s-1.4.2-2.1.2h-1.8s0 .1-.1.1c-1 0-2 .2-2.9.1-.3 0-87 3.9-87.3 3.9-.8 0-1.6.2-2.4.3-1.4.1-2.9 0-4.5.1-.8.1-1.6 0-2.3.1-1.5.2-3.1.2-4.7.4-.8.1-1.6.1-2.3.1-1.2.1-2.4.1-3.4.1-1.8.1-4 .4-5.8.6-.6.1-1.3.1-1.7.1-.1 0-.2.1-.3.1-.7.1-1.5 0-2.3 0-1.4 0-2.9-.1-4.5-.1-.8 0-1.6.2-2.3.2-.6 0-1.2-.2-1.8-.1-.2 0-.3.2-.5.2h-.4c-.3 0-.6.1-1 .1s-.9.1-1.4.1c-.1 0-.3-.1-.5-.1s-.3.1-.5.1c-.3 0-.6-.1-.8-.1h-.3c-.2 0-.6.1-.9.1h-1.3c-.4 0-.8.1-1.2.1-.2 0-.4.1-.6.1-.5.1-1.2.1-1.9.2-.8.1-1.6.1-2.5.1-.8 0-1.6-.1-2.4 0-.6.1-1.3.2-1.9.2-.2 0-.4-.1-.5-.1s-.2.1-.3.1c-.3 0-.7 0-1.1.1-.1 0-.2.1-.4.1-1.3.2-2.9-.1-4.2.1-1 .1-2.1.1-3.1.2s-2.1.2-3.1.2c-2.1 0-4.1 0-6.2.2h-1.5c-1 .1-2.1 0-3.1.2-.5.1-1 .2-1.6.3-.5 0-1.1-.1-1.6-.2-.6 0-1.1 0-1.7.1-.6.1-1.1.1-1.7.1-.5 0-1.1.1-1.6.1-.6 0-1.2-.2-1.8-.2s-1.2.2-1.8-.1c-.1 0-.2-.2-.2-.3-.1 0-.3-.2-.3-.3.1.7.3.6.3.3z" fill-rule="evenodd" clip-rule="evenodd" fill="#009fe3"/><path class="st1" d="M230.1 80.6l22.2-.8.2 5.7-13.9.5.1 4.3 12.9-.4.2 5.5-12.9.4.2 5.3 14.3-.5.2 6.1-22.6.8-.9-26.9zm27-.9l10.9-.4 4.7 16.2 3.6-16.5 10.9-.4.9 26.9-6.8.2-.7-20.5-4.5 20.7-6.2.2-5.9-20.3.7 20.5-6.8.2-.8-26.8zm35.4-1.2l10.9-.4 4.7 16.2 3.6-16.5 10.9-.4.9 26.9-6.8.2L316 84l-4.5 20.7-6.2.2-5.9-20.3.7 20.5-6.8.2-.8-26.8zm52.8 20.7l-9.4.3-1.2 4.5-8.5.3 9.2-27.2 9.1-.3 11 26.5-8.7.3-1.5-4.4zm-1.9-5.8l-3.3-9.6-2.6 9.8 5.9-.2zm30.9-17l8.1-.3.5 15.7c.1 1.6-.1 3-.6 4.4-.4 1.4-1.2 2.6-2.2 3.7s-2.1 1.8-3.2 2.3c-1.6.6-3.4 1-5.7 1.1-1.3 0-2.7 0-4.2-.1s-2.8-.4-3.8-.9-2-1.2-2.9-2.2-1.5-1.9-1.8-3c-.6-1.7-.9-3.1-.9-4.4l-.5-15.7 8.1-.3.5 16c0 1.4.5 2.5 1.3 3.3s1.9 1.1 3.4 1.1c1.4 0 2.5-.5 3.3-1.3s1.1-2 1.1-3.4l-.5-16zm-10.9-5.8l4.7-.2.2 4.5-4.7.2-.2-4.5zm7.6-.3l4.7-.2.2 4.5-4.7.2-.2-4.5zm15.9 23l7.9-.8c.2 1.3.6 2.2 1.1 2.9.9 1.1 2.1 1.6 3.7 1.5 1.2 0 2.1-.3 2.7-.9s.9-1.2.9-2c0-.7-.4-1.3-1-1.8s-2.1-1-4.3-1.4c-3.7-.7-6.3-1.7-7.9-3s-2.4-3-2.5-5.1c0-1.4.3-2.7 1.1-4 .8-1.3 1.9-2.3 3.5-3 1.6-.8 3.8-1.2 6.6-1.3 3.4-.1 6.1.4 7.9 1.6s3 3.2 3.4 6l-7.8.7c-.2-1.2-.7-2.1-1.4-2.6s-1.6-.8-2.8-.7c-1 0-1.7.3-2.2.7-.5.4-.7.9-.7 1.5 0 .4.2.8.6 1.1.4.3 1.3.6 2.8.9 3.7.7 6.3 1.4 7.9 2.1s2.8 1.7 3.5 2.9c.8 1.2 1.2 2.5 1.2 3.9.1 1.7-.4 3.3-1.3 4.8s-2.2 2.6-3.9 3.4c-1.7.8-3.8 1.3-6.4 1.3-4.6.2-7.8-.6-9.6-2.3-1.6-1.5-2.6-3.7-3-6.4z"/><path d="M625.3 137.1c-.2-.3-.3-.5-.2-1 0-.3-.4-.3-.4-.6-.1-.3 0-.5 0-.7-.5 0-.2-.4-.2-.8-.3-.1-.3-.7-.5-1 0-.2.1-.4.1-.7-.1-.4-.3-.5-.4-.8 0-.3.3-.4.3-.6 0-.1-.3-.2-.3-.2-.1-.1-.2-.3-.4-.3-.9-.2-1.8.1-2.8.1-.9 0-1.8-.1-2.7-.1-.8 0-1.6.2-2.5.2s-1.7.1-2.6.2c-.9.2-1.7.3-2.6.3-.8 0-1.7-.1-2.5 0s-1.6.2-2.4.4c-1.6.3-3.2.3-4.8.4-.8.1-1.5.1-2.3.1-3.1.3-6.3.5-9.4.6-.3 0-.5 0-.8.1v.1c-.9.1-1.9.1-2.8.2-1.6.2-3.2.3-4.7.4-2.1.2-4.4.1-6.4.4-.2 0-.4.1-.6.1-.6.1-1.2.1-1.7.1-.2 0-.3.1-.5.1h-.8c-1 0-1.9.2-2.9.3-1.2.1-2.4.1-3.6.2-1.3 0-2.5.1-3.8.3-1 .1-2.1.3-2.9.3-.3 0-.7.1-1 .1-.6.1-1.2.1-1.8.2-.7.1-1.3 0-2 .1-.5.1-1.2.1-1.5.2-.2 0-.4.1-.5.1-.4 0-.9-.1-1.3 0-.2 0-.5.1-.7.1s-.5-.1-.7-.1c-.7 0-1.4.1-2.1.2-.5 0-1.1.1-1.5.2h-.5c-.3.1-.6.2-.8.2-1 .2-1.8 0-2.8.1-1.2.1-2.4.3-3.6.4-2.3.1-4.6.2-6.8.2-1.2 0-2.3 0-3.5.2-.2 0-.3.1-.5.1-.7.1-1.7.1-2.6.2-2.8.3-6.1.8-8.8 1-1.5.1-3.4.2-5.1.3-1.2.1-2.4.2-3.5.3-2.4.3-4.8.4-7.2.7-1.2.1-2.3.2-3.5.3-2.4.2-4.7.2-6.9.4-1.2.1-2.5.4-3.7.5-.5 0-133.1 9.7-133.6 9.7-1.4 0-2.9.2-4.4.3-.1 0-.1.1-.1.1h-.5c-.9.1-1.5.1-2.1.1-1.1.1-2.1.2-3.2.3-1 .1-2 .2-3.1.2-2 .1-4.1.2-6.1.3-2.1.1-4.2.3-6 .4-1.1.1-2.1.2-3.2.3l-3 .3c-1 .1-2 .1-3.1.2-.5 0-1.1.2-1.6.2-3.6.3-7.3.4-10.8.8-1.9.2-3.9.4-5.9.6-3.9.5-8 .8-12.3 1.3-2.1.2-4.1.4-6.2.6l-2.7.3c-.9.1-1.9.1-2.9.2-1.1.1-2.1.1-3.1.2s-2 .1-3 .2l-6.3.6c-1.6.1-3.3.5-4.8.6-.5 0-1 0-1.5.1-1 .1-2 .3-2.9.3-.4 0-.8.1-1.3.1-.9 0-1.7.2-2.5.2-.4 0-.8-.1-1.2-.1-.3 0-.7.1-1 .1-.9 0-2.3.1-3.2.3-.7.2-1.8.3-2.5.4-.1 0-.1.1-.2.1-.4.1-.7.1-1.1.1-.2 0-.4.1-.7.1-.4.1-1 0-1.4 0-.3.1-.6.2-1 .2-.9.1-1.8.1-2.7.2-.5.1-1 .2-1.6.3-.5.1-1 .1-1.5.4-.3.1-.7.2-.7.6 0 .1 0 .3.1.5.3.3.9.1 1.3.3.1.4.3.5.5.7-.1.4.1.6.2.8-.1.2-.1.5-.1.8.1.3.2.5.3.8s0 .6 0 .9c0 .2-.4-.1-.5.1 0 .2.3.1.3.3 0 .2-.1.3-.2.4 0 .3.5.1.4.5 0 .4-.2.4-.2.8 0 .3.2.6.2 1.1 0 .4-.4.5-.4.8-.4.5-.8.9-.9 1.6-.1.2-.5.2-.5.5.1.8-.1 1.3-.5 1.7 0 .3-.3.4-.5.6-.3.4-.7.7-1.1 1.1-.1.5-.4.8-.5 1.3.1.3.2.6.3 1v2.7c0 .3-.5.3-.5.7 0 .2-.1.3-.2.4v.8c-.1.3-.3.5-.4.9-.1.3-.4.5-.6.8.4.8-.5 1.2-.4 1.8 0 .3.2.3.3.4s.2.3.3.5c-.1.5.1 1.1.3 1.4s.4.7.4 1c.1.4-.1.7-.3 1.1.2.1.1.5.3.6.2.2.1.5 0 .7.1.2.4.2.5.5-.2.4 0 1 0 1.3 0 .2-.2.2-.2.4.3 0 .1.3.2.4 0 .1.2.1.2.2.1.1 0 .2.1.3.1.1.3 0 .3.2-.2.2 0 .4 0 .7.1.1-.1.4-.1.6.3.2.4.3.5.6 0 .1-.1.2 0 .3 0 .3.1.6.1.9v.1c-.1.1-.2.3-.1.6-.2.2-.2.6-.2.8 0 .3.2.6.3.8v.3c0 .1.1.1.2.2.1.2.1.2.2.3.1.1.1.3.3.2 2.3-.2 4.6-.3 7-.6 2.4-.3 4.7-.4 7.1-.7 3-.3 5.9-.5 8.7-.7.1 0 .3-.1.4-.1h.4c.5 0 .9-.1 1.3-.2h.4c.8-.1 1.4-.1 1.8-.2.3-.1.3.2.6.1.5-.3 1-.3 1.5-.3 1.6-.1 3.5-.1 5-.4h.4c.3 0 .5-.1.7-.1 1.1-.1 2.2-.1 3.3-.2h.8c.7 0 1.2-.1 1.9-.2.4 0 .8 0 1.1-.1.4 0 .7-.1 1.1-.1h1.1c.1 0 .3-.1.5-.1h.5s.1-.1.2-.1h.3c.5 0 .8-.2 1.1-.2.5-.1 1.1 0 1.7-.2.8.2 1.5-.1 2.3-.1h.9c.1 0 .1-.1.2-.1h.2c.2 0 .3-.1.5-.1h.9c.3 0 .6-.1.9-.2 2.7-.3 5.5-.4 8.1-.7.7-.1 1.3-.1 2-.2s1.5-.2 2.2-.2c.3 0 .6.1.9 0 .3 0 .5-.1.9-.2.6-.1 1.2 0 1.7-.1.1 0 .2-.1.3-.1l.1.1c.7-.1 1.4-.2 1.9-.2.4-.1 1-.1 1.5-.1.6 0 1.3 0 1.9-.1.4-.1.7-.2 1-.3h1.1c1-.1 2.1-.2 3.1-.3 2.4-.2 5.1-.4 7.6-.6.1 0 .2-.1.3-.1h.3c.6 0 1-.1 1.5-.2.7-.1 1.5-.1 2.2-.1.8-.1 1.5-.1 2.3-.2l4.5-.3c.2 0 .5-.1.7-.2.4-.1.9 0 1.3 0 1.5-.1 2.8-.3 4.1-.4.9-.1 1.7-.1 2.6-.2 2.8-.2 5.5-.4 8.1-.6.8-.1 1.6-.2 2.1-.2.3 0 .5-.1.7-.1.9-.1 1.9-.2 2.8-.3h.8c.5 0 133.5-9.9 133.9-9.9.1 0 .1-.1.2-.1.6 0 1.3 0 1.9-.1 1.3-.1 2.6-.2 3.8-.4.5.1.9 0 1.3 0s.9-.1 1.1-.1c.7-.1 1.3 0 1.9-.1.3 0 .5-.1.8-.1.2 0 .5.1.7.1s.3-.1.5-.1c.7-.1 1-.1 1.5-.1 1.4-.1 2.9-.3 4.4-.4.5 0 1.2 0 1.6-.1.2 0 .3-.1.5-.1h1c1.3-.1 2.6-.3 3.9-.4s2.5-.2 3.8-.3c2.7-.2 5.3-.4 7.9-.6 2.5-.2 5-.3 7.5-.6 1.3-.1 2.6-.3 3.9-.3 2.7-.2 5.3-.4 7.9-.6 1.3-.1 2.7-.2 4-.3 1.4-.1 2.7-.3 4.1-.4.6 0 1.2 0 1.8-.1.7-.1 1.4-.1 2.1-.2 2.6-.2 5.2-.5 7.8-.6.6 0 1.3-.1 1.9-.2.5-.1 1.2-.1 1.5-.1.2 0 .3-.1.5-.1h.9c.3 0 .7-.1 1.1-.1.6-.1 1.3 0 1.9-.1.7 0 1.5-.2 2.2-.3 1.9-.2 4.1-.2 6.1-.5.2 0 .5.1.7.1.3-.2.7-.1 1.1-.2.4 0 .9-.2 1.3-.2.3 0 .6.1.9.1.3 0 .5-.2.7-.2 2.5-.3 5.3-.5 7.7-.6 1.3-.1 3-.3 4.4-.4.5 0 .9-.1 1.4-.1h.1c.2 0 .3 0 .5-.1h.6v-.1c.2 0 .4-.1.6-.1.2 0 .5.1.7.1.3 0 .7-.2 1.1-.2.4 0 .8-.1 1.1-.1.2 0 .4.1.7.1 1.7-.1 3.7-.5 5.2-.4.2 0 .5.1.7.1s.5-.2.7-.2c.3-.1.7 0 1.1-.1.4 0 .8 0 1.1-.1.5 0 1-.1 1.4-.1s.7-.1 1.1-.1h.5c1.3-.1 2.3-.2 3.5-.3.2-.1.6.1.6-.2.3-.3-.1-.7-.1-1.2.2-.2 0-.3 0-.7.1-.4.3-.7.3-1.1.1-.2-.1-.2-.1-.5.1-.4.1-.9.2-1.2.1-.2.1-.2.1-.4s-.1-.4-.1-.7c.2-.2-.2-.1-.2-.4.3-.4.2-1 0-1.5.2-.1.1-.5.2-.6l.2-.2c0-.2-.2-.2 0-.3 0-.2-.1-.3-.2-.4-.1-.2.2-.3 0-.4-.1-.3-.2-.8-.2-1.1-.2-.2-.4-.4-.5-.6 0 0 0-.3-.1-.4h-.1c-.1-.1 0-.3 0-.3.2-.2.1.4.4.1.2-.2 0-.5 0-.7 0-.1-.1-.3-.1-.4 0-.2.2-.1.2-.3-.2 0-.4.2-.5.1-.1-.3.5-.2.3-.5-.2-.1 0-.3.1-.4-.1-.4-.2-.6-.3-.9.2-.3.2-.6.4-.9 0-.3-.2-.4-.1-.7.2-.3.3-.5.4-.9.1-.3.3-.6.4-.9 0-.1-.1-.1-.1-.1 0-.1.1-.1 0-.1 0-.5-.1-.7-.3-1 .2-.1.1-.4.2-.5.1-.2.1-.4.1-.6.1-.2.4-.2.4-.5s.1-.5.2-.7c.1-.4.2-.7.3-1.1.1-.1.3-.1.2-.3 0-.3.3-.4.5-.5 0-.2.1-.4.1-.6.4-.3.7-.6 1-.9.1-.2 0-.5.2-.6.2-.2.1-.4.1-.6.4-.4.5-.9.9-1.2 0-.3 0-.6.1-.9l.3-.3c.1-.2 0-.4.1-.5.2-.2.4-.3.6-.5.2-.2.3-.5.5-.7.1-.2.4-.4.5-.6.1-.3.4-.4.5-.6 0-.5.4-.6.5-1-.4-.2 0-.8 0-1.2z" fill-rule="evenodd" clip-rule="evenodd" fill="#e83185"/><path class="st1" d="M250.1 167.4l23.8-1.9.5 6.2-8 .6 1.5 19.1-7.8.6-1.5-19.1-8 .6-.5-6.1zm26.1 10.7c-.3-4.1.6-7.5 2.7-9.9 2.1-2.5 5.2-3.9 9.3-4.2 4.2-.3 7.6.5 10 2.6 2.5 2.1 3.9 5.2 4.2 9.2.2 3-.1 5.4-.9 7.4-.9 2-2.2 3.6-4 4.8-1.8 1.2-4.1 1.9-6.9 2.1-2.9.2-5.3 0-7.2-.8-1.9-.8-3.6-2.1-4.9-4-1.3-1.9-2-4.3-2.3-7.2zm7.9-.6c.2 2.6.8 4.4 1.9 5.4 1 1 2.4 1.5 4 1.4 1.7-.1 2.9-.8 3.8-1.9.8-1.2 1.1-3.2.9-6-.2-2.4-.8-4.1-1.9-5.1s-2.4-1.5-4-1.3c-1.6.1-2.8.8-3.7 2-.9 1-1.2 2.9-1 5.5zm38.1-15.8l7.8-.6 1.2 15.1c.1 1.5 0 2.9-.4 4.3s-1 2.6-1.9 3.7-1.9 1.9-3 2.3c-1.5.7-3.3 1.1-5.4 1.3-1.2.1-2.6.1-4.1.1-1.5-.1-2.7-.3-3.7-.7-1-.4-2-1.1-2.9-2s-1.5-1.8-1.9-2.8c-.6-1.6-1-3-1.1-4.2l-1.2-15.1 7.8-.6 1.2 15.5c.1 1.4.6 2.4 1.4 3.2.8.7 1.9 1 3.3.9s2.4-.6 3.1-1.4 1-1.9.9-3.3l-1.1-15.7zm23.5-1.9l7.8-.6 1.1 13.8c.2 2.9.1 5.1-.2 6.7-.4 1.6-1.3 2.9-2.8 4.1s-3.4 1.8-5.8 2c-2.6.2-4.6 0-6-.6-1.5-.6-2.6-1.5-3.5-2.8s-1.5-2.9-1.7-4.8l7.4-1.6c.1 1.1.3 1.9.5 2.5.2.5.6.9 1 1.2.3.2.8.3 1.3.2.9-.1 1.5-.4 1.9-1.1s.5-1.8.4-3.3l-1.4-15.7zm13.1 11.7c-.3-4.1.6-7.5 2.7-9.9 2.1-2.5 5.2-3.9 9.3-4.2 4.2-.3 7.6.5 10 2.6 2.5 2.1 3.8 5.2 4.2 9.2.2 3-.1 5.4-.9 7.4s-2.2 3.6-4 4.8c-1.8 1.2-4.1 1.9-6.9 2.1-2.9.2-5.3 0-7.2-.8-1.9-.8-3.6-2.1-4.9-4-1.3-1.8-2.1-4.2-2.3-7.2zm7.8-.5c.2 2.6.8 4.4 1.9 5.4 1 1 2.4 1.5 4 1.4 1.7-.1 2.9-.8 3.8-2 .8-1.2 1.1-3.2.9-6-.2-2.4-.8-4.1-1.9-5.1s-2.4-1.5-4-1.3c-1.6.1-2.8.8-3.7 2-.9 1.1-1.2 3-1 5.6zm38.1-15.9l7.8-.6 1.2 15.1c.1 1.5 0 2.9-.4 4.3s-1 2.6-1.9 3.7-1.9 1.9-3 2.3c-1.5.7-3.3 1.1-5.4 1.3-1.2.1-2.6.1-4.1.1-1.5-.1-2.7-.3-3.7-.7-1-.4-2-1.1-2.9-2s-1.5-1.8-1.9-2.8c-.6-1.6-1-3-1.1-4.2l-1.2-15.1 7.8-.6 1.2 15.5c.1 1.4.6 2.4 1.4 3.1s1.9 1 3.3.9 2.4-.6 3.1-1.4 1-1.9.9-3.3l-1.1-15.6zm15.1 24.3l-2-25.3 13-1c2.4-.2 4.3-.1 5.6.2 1.3.3 2.4 1 3.3 2.1s1.4 2.4 1.5 4c.1 1.4-.1 2.6-.6 3.7s-1.3 2-2.3 2.7c-.6.5-1.5.9-2.7 1.2 1 .2 1.7.5 2.1.8.3.2.8.6 1.4 1.2s1 1.1 1.2 1.5l4.4 7.1-8.8.7-4.8-7.4c-.6-1-1.1-1.6-1.6-1.8-.6-.3-1.2-.5-2-.4l-.7.1.8 10.3-7.8.3zm6.6-15.7l3.3-.3c.4 0 1-.2 2-.5.5-.1.9-.4 1.2-.9.3-.5.4-1 .4-1.5-.1-.8-.4-1.4-.9-1.8-.6-.4-1.5-.5-3-.4l-3.4.3.4 5.1zm18.8 5.3l7.4-1.1c.3 1.2.7 2.1 1.2 2.7.9 1 2.1 1.4 3.6 1.3 1.1-.1 2-.4 2.5-1 .6-.6.8-1.2.8-1.9-.1-.7-.4-1.2-1-1.7s-2-.9-4.1-1.2c-3.5-.5-6-1.3-7.6-2.5s-2.4-2.7-2.6-4.7c-.1-1.3.2-2.6.8-3.8.7-1.2 1.7-2.2 3.2-3s3.5-1.3 6.1-1.5c3.2-.3 5.7.1 7.5 1.2s3 2.9 3.5 5.5l-7.3 1c-.3-1.1-.8-1.9-1.4-2.4-.7-.5-1.6-.7-2.7-.6-.9.1-1.6.3-2 .7-.4.4-.6.9-.6 1.5 0 .4.2.8.7 1 .4.3 1.3.5 2.7.7 3.5.5 6 1 7.5 1.7 1.5.6 2.7 1.5 3.4 2.6.8 1.1 1.2 2.3 1.3 3.7.1 1.6-.2 3.2-1 4.6s-2 2.6-3.5 3.4-3.6 1.3-6 1.5c-4.3.3-7.3-.3-9.1-1.8-1.8-1.3-2.9-3.3-3.3-5.9z"/><path d="M499.7 168.9l-8.9.7-.9 4.3-8 .6 7.5-26.1 8.6-.7 11.5 24.6-8.2.6-1.6-4zm-2-5.3l-3.5-8.9-2.1 9.3 5.6-.4zm25.7-1.6l-.4-5.3 12.1-1 .9 10.8c-2.2 1.8-4.2 3-5.9 3.7s-3.8 1.2-6.3 1.4c-3 .2-5.5-.1-7.5-1s-3.6-2.3-4.8-4.2c-1.2-1.9-1.9-4.2-2.1-6.9-.2-2.8.2-5.2 1.1-7.4 1-2.1 2.5-3.8 4.6-5.1 1.7-1 3.9-1.5 6.8-1.8 2.8-.2 4.9-.1 6.3.3 1.4.4 2.6 1.1 3.6 2.1s1.8 2.3 2.4 3.9l-7.5 1.9c-.4-.9-1-1.6-1.8-2.1-.8-.4-1.7-.6-2.9-.5-1.7.1-3 .8-4 2.1-.9 1.3-1.3 3.2-1.1 5.8.2 2.7.9 4.7 2 5.8 1.1 1.1 2.6 1.6 4.4 1.4.9-.1 1.7-.3 2.5-.6s1.6-.8 2.6-1.5l-.2-2.4-4.8.6zm15.8-17.5l7.8-.6 2 25.3-7.8.6-2-25.3zm15.5 24.3l-2-25.3 13-1c2.4-.2 4.3-.1 5.6.2 1.3.3 2.4 1 3.3 2.1.9 1.1 1.4 2.4 1.5 4 .1 1.4-.1 2.6-.6 3.7s-1.3 2-2.3 2.7c-.6.5-1.5.9-2.7 1.2 1 .2 1.7.5 2.1.8.3.2.8.6 1.4 1.2.6.6 1 1.1 1.2 1.5l4.4 7.1-8.8.7-4.8-7.4c-.6-1-1.1-1.6-1.6-1.8-.6-.3-1.2-.5-2-.4l-.7.1.8 10.3-7.8.3zm6.7-15.7l3.3-.3c.4 0 1-.2 2-.5.5-.1.9-.4 1.2-.9s.4-1 .4-1.5c-.1-.8-.4-1.4-.9-1.8-.6-.4-1.5-.5-3-.4l-3.4.3.4 5.1z" fill="#ffed00"/><path d="M533.2 105.1c-.2-.3-.3-.5-.2-1 0-.3-.4-.3-.4-.6-.1-.3 0-.5 0-.7-.5 0-.2-.4-.2-.8-.3-.1-.2-.7-.5-1 0-.2.1-.4.1-.7-.1-.4-.3-.5-.4-.8 0-.3.3-.4.3-.6 0-.1-.3-.2-.3-.2-.1-.1-.2-.3-.4-.3-.9-.2-1.8.1-2.8.1-.9 0-1.8-.1-2.7-.1-.8 0-1.6.2-2.5.2s-1.7.1-2.6.2c-.9.1-1.7.2-2.6.2-.8 0-1.7-.1-2.5-.1-.6 0-1.3.1-1.9.3h-.3c-.5 0-1.1.1-1.5.2h-.5c-.2 0-.4.1-.5.1-.7.1-1.4.1-2 .1h-1c-.5 0-1 .1-1.5.1h-.2c-.8.1-1.6.1-2.4.2-2.1.1-4.2.1-6.3.2-1.2 0-2.3 0-3.5.1-.2 0-.3.1-.5.1-.7.1-1.7.1-2.6.2-1.2.1-2.6.3-4 .5-2 .2-4.1.1-6.1.3-.2 0-.4.1-.6.1-.6.1-1.2.1-1.7.1-.2 0-.3.1-.5.1h-.8c-1 0-1.9.2-2.9.3-1.2.1-2.4.1-3.6.1-1.3 0-2.5.1-3.8.2-1 .1-2.1.2-2.9.3-.3 0-.7.1-1 .1-.6 0-1.2.1-1.8.2-.6.1-1.3 0-2 .1-.5.1-1.2.1-1.5.2h-1.2c-.3 0-.6 0-.9.1-1.2.1-2.5.4-3.7.4-.5 0-133.1 9-133.6 9-1.4 0-2.9.2-4.4.3-.1 0-.1.1-.1.1h-.5c-.9.1-1.5.1-2.1.1-1.1.1-2.1.2-3.2.3-1 .1-2 .2-3.1.2-2 .1-4.1.2-6.1.2-2.1.1-4.2.2-6 .4-1.1.1-2.1.2-3.2.3l-3 .3c-1 .1-2 .1-3.1.2-.5 0-1.1.1-1.6.2-3.6.2-7.3.4-10.8.8-2 .2-3.9.4-5.9.6-3.9.4-8 .7-12.3 1.2-2.1.2-4.1.3-6.2.5-.9.1-1.8.2-2.7.2-1 .1-1.9.1-2.9.2-1.1.1-2.1.1-3.1.2s-2 .1-3 .2c-2.1.1-4.2.4-6.3.5-1.6.1-3.3.5-4.8.6h-1.6c-1 .1-2 .3-2.9.3-.4 0-.8.1-1.3.1-.9 0-1.7.2-2.5.2-.4 0-.8-.1-1.2-.1-.3 0-.7.1-1 .1-.9 0-2.3.1-3.2.3-.7.2-1.8.3-2.5.3-.1 0-.1.1-.2.1-.4.1-.7.1-1.1.1-.2 0-.4.1-.7.1h-1.4c-.3 0-.6.2-1 .2-.9.1-1.8.1-2.7.2-.5.1-1.1.2-1.6.3-.5.1-1 .1-1.5.4-.3.1-.7.2-.7.6 0 .2 0 .3.1.5.3.3.9.1 1.3.3.1.4.3.5.5.7-.1.4.1.6.2.8-.1.3-.1.5-.1.8.1.3.2.5.3.8s0 .6 0 .9c0 .2-.4-.1-.5.1 0 .2.3.1.3.3 0 .2-.1.3-.2.4 0 .3.5.1.4.5 0 .4-.2.4-.2.8 0 .3.2.6.2 1.1 0 .4-.4.5-.4.9-.4.5-.8.9-.9 1.6-.1.2-.5.2-.5.5.1.8-.1 1.3-.5 1.7 0 .3-.3.4-.5.6-.3.4-.7.7-1.1 1.1-.1.5-.4.8-.5 1.3.1.3.2.6.2 1v2.7c0 .3-.5.3-.5.7 0 .2-.1.3-.2.4.1.3 0 .6 0 .8-.1.3-.3.5-.4.9-.1.3-.4.5-.7.7.4.8-.5 1.2-.4 1.8 0 .3.2.3.3.4s.2.3.3.5c-.1.5.1 1.1.3 1.4s.4.7.4 1c0 .4-.1.7-.3 1.1.2.1.1.5.3.6.2.2 0 .5 0 .7.1.2.4.2.5.5-.2.4 0 1-.1 1.3 0 .2-.2.2-.2.4.3 0 .1.3.2.4 0 .1.2.1.2.2.1.1 0 .2.1.3.1.1.3 0 .3.2-.1.2 0 .4 0 .7.1.1-.1.4-.1.6.3.2.4.3.5.6 0 .1-.1.1 0 .3 0 .3.1.6.1.9v.1c-.1.1-.2.3-.1.6-.2.2-.2.6-.2.8 0 .3.2.6.3.8v.3c0 .1.1.1.2.2.1.2.1.3.2.3.1.1.1.3.3.2 2.3-.1 4.6-.3 7-.5 2.4-.3 4.7-.4 7.1-.6 3-.3 5.9-.4 8.8-.7.1 0 .3-.1.4-.1h.4c.5 0 .9-.1 1.3-.1h.4c.8-.1 1.4-.1 1.8-.2.3-.1.3.2.6.1.5-.3 1-.3 1.5-.3 1.6-.1 3.5-.1 5-.4h.4c.3 0 .5-.1.7-.1 1.1-.1 2.2-.1 3.3-.2h.8c.7 0 1.2-.1 1.9-.2.4 0 .8 0 1.1-.1.4 0 .7-.1 1.1-.1h1.1c.1 0 .3-.1.5-.1h.5s.1-.1.2-.1h.3c.5 0 .8-.2 1.1-.2.5-.1 1.1 0 1.7-.2.8.2 1.5-.1 2.3-.1h1c.1 0 .1-.1.2-.1h.2c.2 0 .3-.1.5-.1.3 0 .6.1.9 0 .3 0 .6-.1.9-.2 2.7-.3 5.5-.4 8.1-.7.7-.1 1.3-.1 2-.2s1.5-.2 2.2-.2c.3 0 .6.1.9 0 .3 0 .5-.1.9-.2.6-.1 1.2 0 1.7-.1.1 0 .2-.1.3-.1l.1.1c.7-.1 1.4-.2 1.9-.2.4-.1 1-.1 1.5-.1.6 0 1.3 0 1.9-.1.4-.1.7-.2 1-.3h1.1c1-.1 2.1-.2 3.1-.3 2.4-.2 5.1-.3 7.5-.5.1 0 .2-.1.3-.1h.3c.6 0 1-.1 1.5-.2.7-.1 1.5-.1 2.2-.1.8-.1 1.5-.1 2.3-.2l4.5-.3c.2 0 .5-.1.7-.2h1.3c1.5-.1 2.8-.2 4.1-.4.9-.1 1.7-.1 2.6-.2 2.8-.2 5.5-.4 8.2-.6.7-.1 1.6-.2 2.1-.2.3 0 .5-.1.7-.1.9-.1 1.9-.2 2.8-.3.3 0 .6.1.8 0 .5 0 133.6-9.1 133.9-9.1.1 0 .1-.1.2-.1.6-.1 1.3 0 1.9-.1 1.3-.1 2.6-.2 3.8-.4.5.1.9 0 1.3 0s.9-.1 1.1-.1c.7-.1 1.3 0 1.9-.1.3 0 .5-.1.8-.1.2 0 .5.1.7.1s.3-.1.5-.1c.7-.1 1-.1 1.5-.1 1.4-.1 2.9-.3 4.4-.4.6-.1 1.2 0 1.6-.1.2 0 .3-.1.5-.1h1c1.3-.1 2.6-.3 3.9-.4s2.5-.2 3.8-.3c.9-.1 1.9-.1 2.8-.2h.2c1-.1 2-.1 2.9-.2h.2c.1 0 .2 0 .3-.1.5 0 1-.1 1.4-.1 2.5-.2 5-.3 7.6-.5l3.9-.3c.7 0 1.4-.1 2.1-.2h.3c.6 0 1.2-.1 1.8-.1h.3c.1 0 .3 0 .4-.1.7-.1 1.4-.1 2.1-.2h.4c.9 0 1.8-.2 2.7-.3.6 0 1.3-.1 1.9-.1h.6c.2 0 .5.1.7.1s.4-.1.5-.2c.4 0 .7-.1 1.1-.1h.1c.4 0 .8 0 1.1-.1.5 0 1-.1 1.4-.1s.7-.1 1.1-.1h.5c1.3-.1 2.3-.2 3.5-.3.2-.1.6.1.6-.2.3-.3-.1-.7-.1-1.2.2-.2 0-.3 0-.7.1-.4.3-.7.4-1.1.1-.2-.1-.2-.1-.5.1-.4.1-.9.2-1.2.1-.2.1-.2.1-.4s-.1-.4-.1-.7c.2-.2-.2-.1-.2-.4.3-.4.2-1 0-1.5.2-.1.1-.5.2-.6l.2-.2c0-.2-.2-.2 0-.3 0-.2-.1-.3-.2-.4-.1-.2.2-.3 0-.4-.1-.3-.2-.8-.2-1.1-.2-.2-.4-.4-.5-.6v-.4h-.1c-.1-.1 0-.3 0-.3.2-.2.1.4.4.2.3-.2 0-.5 0-.7 0-.1-.1-.3-.1-.4 0-.2.3-.1.2-.3-.2 0-.4.2-.5.1-.1-.3.5-.2.3-.5-.2-.1 0-.3.1-.4-.1-.4-.2-.6-.3-.9.2-.3.2-.7.4-.9 0-.3-.2-.4-.1-.7.2-.3.3-.5.4-.9.1-.3.3-.6.4-.9 0-.1-.1-.1-.1-.1 0-.1.1-.1.1-.1 0-.5-.1-.7-.3-1 .2-.1.1-.4.2-.5.1-.2.1-.4.1-.6.1-.2.4-.2.4-.4 0-.3.1-.5.2-.7.1-.4.2-.7.3-1 .1-.1.3-.1.2-.3 0-.3.3-.4.5-.5 0-.2.1-.4.1-.6.4-.2.7-.6 1-.9.1-.2 0-.5.2-.6.2-.2.1-.4.1-.6.3-.4.5-.9.9-1.2 0-.3 0-.6.1-.9l.3-.3c.1-.2 0-.4.1-.5.2-.2.4-.3.6-.5.2-.2.3-.5.5-.7.1-.2.4-.4.5-.6s.4-.4.5-.6c0-.5.4-.6.5-1 0 .3.4-.3.4-.7z" fill-rule="evenodd" clip-rule="evenodd" fill="#ffed00"/><path d="M231.5 128l7.3-.5 10.6 13.3-1-14 7.4-.5 1.8 25.3-7.4.5-10.5-13.3 1 14-7.4.5-1.8-25.3zm29.4-2.2l21-1.5.4 5.4-13.1 1 .3 4 12.2-.9.4 5.2-12.2.9.4 5 13.5-1 .4 5.7-21.3 1.5-2-25.3zm37.3-2.7l13-.9c2.8-.2 5 .3 6.5 1.6 1.5 1.2 2.4 3.1 2.5 5.6.2 2.6-.4 4.6-1.9 6.2-1.4 1.6-3.7 2.4-6.9 2.7l-4.3.3.7 9.4-7.9.6-1.7-25.5zm8.7 10.2l1.9-.1c1.5-.1 2.5-.4 3.1-1s.8-1.3.8-2.1c-.1-.8-.4-1.5-.9-2-.6-.5-1.6-.7-3-.6l-2.2.2.3 5.6zm31 8.2l-8.9.6-1 4.3-8 .6 7.7-26 8.6-.6 11.3 24.7-8.2.6-1.5-4.2zm-2-5.4l-3.4-8.9-2.1 9.3 5.5-.4zm12.3.4l7.4-1c.2 1.2.6 2.1 1.2 2.7.9 1 2.1 1.4 3.6 1.3 1.1-.1 2-.4 2.5-1 .6-.6.8-1.2.8-1.9s-.4-1.2-1-1.7-2-.9-4.1-1.2c-3.5-.5-6-1.4-7.6-2.5-1.6-1.2-2.4-2.8-2.6-4.7-.1-1.3.2-2.6.9-3.8.7-1.2 1.7-2.2 3.2-3s3.5-1.3 6.2-1.5c3.2-.2 5.7.2 7.5 1.3 1.8 1.1 2.9 2.9 3.4 5.5l-7.3 1c-.3-1.1-.8-1.9-1.4-2.4-.7-.5-1.5-.7-2.6-.6-.9.1-1.6.3-2 .7-.4.4-.6.9-.6 1.5 0 .4.2.8.7 1 .4.3 1.3.6 2.7.7 3.5.5 6 1.1 7.5 1.7 1.5.7 2.7 1.5 3.4 2.6.8 1.1 1.2 2.3 1.3 3.7.1 1.6-.2 3.2-1 4.6s-2 2.6-3.5 3.4c-1.6.8-3.6 1.3-6 1.5-4.3.3-7.4-.3-9.1-1.8-2-1.5-3.1-3.5-3.5-6.1z"/><path d="M385.6 133.8l7.4-1c.3 1.2.6 2.1 1.2 2.7.9 1 2.1 1.4 3.6 1.3 1.1-.1 2-.4 2.5-1 .6-.6.8-1.2.8-1.9s-.4-1.2-1-1.7-2-.9-4.1-1.2c-3.5-.5-6-1.4-7.6-2.5-1.6-1.2-2.4-2.7-2.6-4.7-.1-1.3.2-2.6.9-3.8.7-1.2 1.7-2.2 3.2-3s3.5-1.3 6.2-1.4c3.2-.2 5.7.2 7.5 1.3 1.8 1.1 2.9 2.9 3.4 5.5l-7.3 1c-.3-1.1-.7-1.9-1.4-2.4s-1.5-.7-2.7-.6c-.9.1-1.6.3-2 .7-.4.4-.6.9-.6 1.5 0 .4.2.8.6 1 .4.3 1.3.6 2.7.7 3.5.5 6 1.1 7.5 1.7s2.7 1.5 3.4 2.6c.8 1.1 1.2 2.3 1.3 3.7.1 1.6-.2 3.2-1 4.6s-2 2.6-3.5 3.4c-1.6.8-3.6 1.3-6 1.5-4.3.3-7.3-.3-9.1-1.8-1.9-1.6-2.9-3.7-3.3-6.2zm42.1-20.1l7.8-.6 1.1 15.1c.1 1.5 0 2.9-.4 4.3s-1 2.6-1.9 3.7-1.9 1.8-3 2.3c-1.5.7-3.3 1.1-5.4 1.2-1.2.1-2.6.1-4.1 0s-2.7-.3-3.7-.8c-1-.4-2-1.1-2.8-2-.9-.9-1.5-1.8-1.9-2.8-.6-1.6-.9-3-1-4.2l-1.1-15.1 7.8-.6 1.1 15.5c.1 1.4.6 2.4 1.4 3.2.8.7 1.9 1 3.3.9s2.4-.6 3.1-1.4 1-1.9.9-3.3l-1.2-15.4zm13-1l14.7-1.1c2.4-.2 4.4.3 5.8 1.4s2.2 2.6 2.3 4.3c.1 1.5-.3 2.8-1.1 4-.6.8-1.4 1.4-2.6 1.9 1.9.3 3.3 1 4.2 2 .9 1 1.5 2.3 1.6 3.9.1 1.3-.1 2.5-.7 3.6-.5 1.1-1.3 2-2.3 2.7-.6.4-1.6.8-2.9 1.1-1.7.4-2.9.6-3.5.6l-13.5 1-2-25.4zm8.6 9.4l3.4-.2c1.2-.1 2.1-.4 2.5-.8.4-.5.6-1.1.6-1.9-.1-.7-.3-1.3-.8-1.7-.5-.4-1.4-.5-2.5-.4l-3.5.3.3 4.7zm.8 9.9l4-.3c1.4-.1 2.3-.4 2.8-.9s.7-1.2.7-2c-.1-.7-.4-1.3-1-1.7-.6-.4-1.6-.6-2.9-.5l-4 .3.4 5.1zm18.4-21.3l7.8-.6 1.8 25.3-7.8.6-1.8-25.3zm15.5 24.4l-1.8-25.4 13-.9c2.4-.2 4.3-.1 5.6.2 1.3.3 2.4 1 3.3 2.1s1.4 2.4 1.5 4c.1 1.4-.1 2.6-.6 3.7s-1.3 2-2.3 2.7c-.6.5-1.5.9-2.7 1.2 1 .2 1.7.5 2.1.8.3.2.7.6 1.3 1.2.6.6 1 1.1 1.2 1.5l4.3 7.1-8.8.6-4.7-7.4c-.6-1-1.1-1.6-1.6-1.9-.6-.3-1.2-.5-2-.4h-.7l.7 10.3-7.8.6zm6.7-15.7l3.3-.2c.4 0 1-.2 2-.5.5-.1.9-.4 1.2-.9.3-.4.4-.9.4-1.5-.1-.8-.4-1.4-.9-1.8s-1.5-.5-3-.4l-3.4.3.4 5z" fill="#e83185"/><path d="M44.6 236.6v-6.2h3.1v.7h-2.3v2h2.2v.7h-2.2v2.8h-.8zm8-.6c-.7 0-1.1-.3-1.1-1.7v-2.1c0-1.3.9-1.3 1.1-1.3.2 0 1.1 0 1.1 1.3v2.1c0 1.4-.4 1.7-1.1 1.7zm0 .7c1.3 0 1.9-.7 1.9-2.4v-2c0-1.2-.6-2-1.9-2-1.3 0-1.9.8-1.9 2v2c-.1 1.7.6 2.4 1.9 2.4zm9.8-6.3v6.2h-1.1l-2.4-5.4v5.4h-.7v-6.2h1.1l2.4 5.3v-5.3h.7zm4.5.7h1c.8 0 1.2.5 1.2 1.7v1.2c0 1.4-.4 1.8-1.5 1.8h-.7v-4.7zm-.7 5.5h1.4c1.1 0 1.7-.3 2-.8.3-.4.4-1.2.4-2.5 0-.2 0-1.4-.3-2-.3-.7-.9-.9-1.7-.9h-1.9l.1 6.2zm10.3-2.2h-2l1-3.3 1 3.3zm-3.4 2.2h.8l.5-1.5h2.4l.4 1.5h.8l-2-6.2h-1l-1.9 6.2zm10.9-6.2v.7h-1.6v5.5h-.8v-5.5H80v-.7h4zm3 6.2v-6.2h3.2v.7h-2.4v2H90v.7h-2.2v2.1h2.4v.7H87zm6.6-6.2h.8v4c0 1.4.4 1.7 1.2 1.7.7 0 1.2-.3 1.2-1.7v-4h.8v3.9c0 1.7-.6 2.4-1.9 2.4s-1.9-.7-1.9-2.4v-3.9h-.2zm8.2.7h1.2c.6 0 .8.5.8.9 0 .5-.3 1-.8 1h-1.2v-1.9zm1 2.6c.3 0 .9 0 .9.8.1.8 0 1.6.2 2.1h.8c-.1-.4-.2-1.4-.2-1.6 0-1.2-.3-1.5-1-1.6.7-.1 1.1-.7 1.1-1.4 0-.8-.4-1.5-1.5-1.5H101v6.2h.8v-2.8h1v-.2zm12.3.7h-2l1-3.3 1 3.3zm-3.4 2.2h.8l.5-1.5h2.4l.4 1.5h.9l-2-6.2h-1l-2 6.2zm8.9-2.9h.8c.8 0 1.4.2 1.4 1.2 0 .5-.3 1.1-1.1 1.1h-1.1v-2.3zm0-2.6h1.1c.7 0 .9.4.9.9 0 .6-.3 1-.9 1h-1.1v-1.9zm1.2 5.5c.7 0 1.9-.2 1.9-1.7 0-.8-.4-1.4-1.3-1.5.8-.2 1.1-.7 1.1-1.5 0-.1 0-.5-.2-.8s-.5-.6-1.4-.6h-2v6.2h1.9v-.1zm6.3-2.9h.8c.8 0 1.4.2 1.4 1.2 0 .5-.3 1.1-1.1 1.1h-1.1v-2.3zm0-2.6h1.1c.7 0 .9.4.9.9 0 .6-.3 1-.9 1h-1.1v-1.9zm1.2 5.5c.7 0 1.9-.2 1.9-1.7 0-.8-.4-1.4-1.3-1.5.8-.2 1.1-.7 1.1-1.5 0-.1 0-.5-.2-.8s-.5-.6-1.4-.6h-2v6.2h1.9v-.1zm7.9-8.1l-1.1 1.2h-.6l.8-1.2h.9zm-2.5 8.1v-6.2h3.2v.7h-2.4v2h2.2v.7h-2.2v2.1h2.4v.7h-3.2zm11.6-5.5h1.1c.2 0 .9.1.9 1 0 1-.8 1.1-1.1 1.1h-.9v-2.1zm0 5.5v-2.7h1c.6 0 1.7-.3 1.7-1.7 0-1.5-.9-1.8-1.7-1.8h-1.8v6.2h.8zm7.1 0h-.8v-6.2h.8v6.2zm3.7 0v-6.2h3.2v.7h-2.4v2h2.2v.7h-2.2v2.1h2.4v.7h-3.2zm7.3-5.5h1.2c.6 0 .8.5.8.9 0 .5-.3 1-.8 1h-1.2v-1.9zm1 2.6c.3 0 .9 0 .9.8.1.8 0 1.6.2 2.1h.8c-.1-.4-.2-1.4-.2-1.6 0-1.2-.3-1.5-1-1.6.7-.1 1.1-.7 1.1-1.4 0-.8-.4-1.5-1.5-1.5h-2.1v6.2h.8v-2.8h1v-.2zm6.1-2.6h1.2c.6 0 .8.5.8.9 0 .5-.3 1-.8 1h-1.2v-1.9zm.9 2.6c.3 0 .9 0 .9.8.1.8 0 1.6.2 2.1h.8c-.1-.4-.2-1.4-.2-1.6 0-1.2-.3-1.5-1-1.6.7-.1 1.1-.7 1.1-1.4 0-.8-.4-1.5-1.5-1.5h-2.1v6.2h.8v-2.8h1v-.2zm5.3 2.9v-6.2h3.2v.7h-2.4v2h2.2v.7h-2.2v2.1h2.4v.7h-3.2z"/><path d="M148.5 22.6s-2.2-1.3-3.2.6 0 2.7 0 2.7l1.4 1.9.2 2.2.8 2.4 1.1 1 .5 2.1s1.7 1.3 1.9 2.4c0 0 1.3.6 1.4 1.1.2.5 2.7-1 4.6 2.5l1 2.7s-.3 1 2.9 1.9c0 0 1 .5 2.1.3 0 0 .3-.8 1.3-1.3s2.5-1.1 3.2-1.1c.6 0 1.9-.8 2.1-4.8.2-4 .3-8.4.3-8.4V27l-.6-2.9s-.8.6-1.9-.2c-1.1-.8-.5-1.6-1.4-1.6-1 0-2.2-.2-2.2-.2s-1-.2-1.7.6c0 0-1.5 0-2.1-.2s-2.5-.6-5-.2-.5.5-1.5-.2-2-.5-3-.1c-1.3.5-1.4.8-2.2.6zm-.2 30.8s1.5.2 1.4-1.2c-.1-1.4-.2-.7.5-1.3s.4-1.4-.2-2c-.6-.6-3.1-1.1-3.1-1.1l-1.2-.8-2 .1s-1.7-.8-2.4-1.8-1.8-1.8-2.5-2.3-1.4-.8-2.4-3.1-.7-2.3-1.7-2.7c-1-.5-2.3-1.9-2.6-2.4-.4-.5-1.7-1.1-1.7-1.1s-1.9-2.3-2.3-3.4c-.4-1.2-1.8-1.9-2.3-2s-1.7-1.7-1.7-1.7-2.1-.4-2.6-.2c-.5.1-1.2-1-2.1-1.4s-3.9-.5-4.8-.2c-.8.2-1.2-.1-1.2-.1l-1.2.1s-6.8.4-7.5.1c-.7-.2-2.3-.6-3.2-1.1-1-.5-2.1 0-2.5.2s-2.3.2-2.3.2-2.4-.2-3.3-1.1-2 0-2.5.2-1.4-.5-1.4-.5h-1.3l-1.2-.4s-2-.4-2.5-.4-2.1-.7-3.4-.6c-1.3.1-2 .1-2.4-.2s-1.1-.1-1.4.5c-.4.6-2.7 1.3-2.7 1.3l-1.2.6s-1.4.5-2.7.5-1.8-.2-2.7.4c-1 .6-2.7-.7-2.7-.7s-1.9-1.1-3.2-.7-3.3-.1-4.3 1.7c0 0-1.1.7-.8 1.7.2 1-1.1 1.3-1.1 1.3s-.6.4-.6 2.5.1 3 .1 3l-.5 1.8-1.4 4.8s-.8 2.5-.8 3.3-.2 3.6-.6 4.3c-.4.7-.5 2.6-.4 3.2.1.6-.7 2.9-.7 4 0 1.2.6 4.6-.2 5.9s-.4 3.8-.4 4.4-1 2.4-.2 3.6c.7 1.2.1 1.9.2 3.4s.4 2.9.4 3.3c0 .5-.1 3.1 1.1 3.4 0 0 .4-1.1 1.7-1.3 0 0 1 .2 1.3 1.8l.6 1.1-.2 3.2s0 1.7-.4 2.1c-.4.5-.2 2.4-.2 2.4s-.4 1.5-.5 7.1c0 0-1.2 3-1.7 4.9 0 0-.4 1.9.1 2.5v4s-.1 3.2.2 4c.4.8.7 5.8.4 6.7l.6.7s1 3.9.4 5.1-.4 4.6 0 5.6 1 2.1.4 2.9c-.6.7-.5 4.6-.1 5.9s.6 3.6.4 5.9c0 0 .5 3.2 1.9 4.4 0 0 .6 1.5 2.9 2.3 2.3.7 2.1.4 4.8.8s3.3 0 4.6.8c0 0 1.7.5 2 .5s2 1.5-.6 2.4c0 0-.8-.8-2.4-.1 0 0-2.7-.6-3.7 0s-1.7.4-2.1.1-3.8-.2-5-.1-1.4-.8-1.4-.8-1.7-1-2.5-1.2-1.1-.8-1-2.4c.1-1.5-.1-2.3-.6-3.1-.5-.8-.6-2.1-.6-2.6s-.1-2-.1-2-.5-1 .1-1.7.1-3.1.1-3.4c0-.4-.4-4.6-.5-5.1s-.2-2.3-.2-2.3-.4-.1-.4-2.3c0 0 .2-1.3-.2-3.4 0 0-.5-2.7 0-3.6 0 0 .7-2.1.5-3.8-.2-1.7.4-2.1-.2-3.4-.6-1.3-1.1-2.6-1-4.5 0 0-.7-.5-.5-3.4 0 0 .4-1.4.8-3.1 0 0-.1-1.5.5-5.7 0 0 .4-3.1.8-4.3.5-1.2.1-2.7.1-2.7s.8-3.6 1-4.3.6-3-.2-4.5c0 0-1.4 5.3-1.5 6.9l-.1 1.8-.5.7h-1l-2.3 14.3.5 4.2.2 9.3-1.5 10.2.5 22s1.4.1 2 1c.6.8 1.2 1.7 1.8 2.4.6.7 1.1 1.3 1 2.1 0 0 .5 2.9 3.8 2.6 3.3-.2 1.8-.2 1.8-.2s2-.7 3.1 0c0 0 3.2.4 4.2.2 1-.1 1-.4 1-.4h4.9s2.6-.1 3.4-.5 4-1 4-1l2.1-.5 3.6.4s2.1.2 2.9 0 4.2-.2 4.2-.2l2 .1s4.6 0 5.2-.2 1.9-.2 1.9-.2h2.9s1.7-.5 2.4.1 1.2.2 1.7-.1c.5-.4 3.9 0 3.9 0l1.8 1.1s3 .4 3.7.1c.7-.2 2.6.2 2.6.2s2.4-.4 2.6.1 1.8.4 2.4.5 2.1.2 2.5.6 2.3.5 2.3.5.4.8 2 .7l1.8 1.7 10 .8 23.1-.5 4.1-.8 3.5-1.9 1.7-3.8.5-13.8-.5-10.6s-1.6 2.9-3.6 3.5c0 0-1.7 0-1.9 3.5 0 0-1 1.4-2.2 3.2 0 0-2.9-.2-3.3-.3-.5-.2-1.3-1.3-2.5-.5-1.3.8-1.6-.6-1.6-1.4s-.6-3-.6-3-.3-2.9-.2-3.8c.2-1 1.1-1.3.3-3.6 0 0-.3-.8.3-1.1 0 0-.2-2.4.2-3.2.5-.8 1.1-4.2 2-5.1 0 0 1.3-2.1.4-5.2 0 0 1.4 0 .6-4.8 0 0-1.3-3.4 3.3-4s5.5-.1 5.5-.1 1.3.2 1.1-2.1c-.2-2.4-.4-1.3-1.1-1.4-.7-.1-1.2.2-2-.4s-1.3-1.3-3.2-.6c0 0-2.6.7-4.8-.4 0 0-.8-.7-3.2-.8-2.4-.1-2.6-2-7.4-4 0 0-1.5-1-1.8-3.4-.2-2.5-1-3.8-1.4-4.8-.5-1-1.5-2.1-1.5-2.1l-.6-.4-1.1-1s-3.4 1.8-6.7 3.6c0 0-2.1 1.3-2.6 1.3 0 0-.2 1.3-2.7 1.5 0 0-2.9.5-3.8.7l-3.3 1.5-3.1.4-2.4 1.3s-1.7.1-3.1 1.8c0 0-1.1 1.1-4.5-.5 0 0-1.3-1.5-2.9-2.5 0 0-1.4-2-2.7-2.5 0 0-1-1-.4-2.6l3.3-3.4s2.7-.7 5.3-3.2l2.9-2 1.5-.2s.7-.6 2.1-1c0 0 .6-1.4 3.6-1.3 0 0 3.1-3 11.4-3.2 0 0 3.6.1 4.4-.6s1.3-1 1.8-2.5-.2-3-.2-3l-.4-2.5.4-2.6.6-2.4s.8-2.4 1.8-2.5 2.5-2.1 2.5-2.1.7 0 1.2-.4c.1-.5.6-1.1.6-1.1z" fill="#14387f"/><path d="M115.4 15l1 1.9.3 1.7-2.5 2.9s-2.7 0-5.1.3l-2.2-1.1s-2.4-.8-4.6 0c0 0-3.8.6-4.9.6l-1.7-.2s-2.1-1.6-2.9-1.6c0 0-3.2.3-3.8.3 0 0-2.1-.5-2.9 0 0 0-1.7.3-3.5-.5 0 0-1.2-.3-2.4.2 0 0-1.9.4-3.3-.1 0 0-1.9 0-2.4.2 0 0-.1.1-3.4-.4 0 0-1.2 0-2.5.5s-3.9.8-5.5.5l-1.7.5s-1 1.2-2.1 1.2c0 0-3.6-.1-4.8.5 0 0-1.3.5-1.9.6 0 0-1.3.4-3.2 0 0 0-1.1 0-1.5 1.1 0 0-.2.7-.8 1.1 0 0-.7-.4-.5 2 0 0 .2 1-.5 1.5 0 0-.7 1.1-.5 1.5 0 0 .8.8.2 1.7 0 0 .1 1 0 1.4 0 0-.6 1-.4 2.7 0 0-.5.8-.4 1.9 0 0-.6 1.2.1 2.1 0 0 .1.4.2 1 0 0 .5 1.2-.1 1.7 0 0 .1 1.5.7 2.3 0 0 .5 1 0 1.4 0 0-.5.8 0 1.5 0 0 .2.7-.1 1.2 0 0-.1.5.2 1.1 0 0 .1 1.2.1 1.7s.7.8 0 1.8c0 0-.1 1.4 0 2.5 0 0 .4.7.4 1.5 0 0 .5 1.1.5 2 0 0 .5 3.7.4 4.8l.4.1s-.2 4.9-.1 5.7c0 0-.4.6-.1 1l.2.4s.4 1.5 0 3.1c0 0-.4 3.6-.1 4.9 0 0 1 1.5.2 2.9 0 0-.2 2.7-.1 3.9l.4.2v1.9s.7.5.7 1.3c0 0 .2 1.9 0 3.2 0 0-.4 1.4-.2 2.4l-.5.7s-.5 1.4-.4 2.4l-.4 3.4-.2 2.6s-.2 1 .2 1.8.1 2.6-.1 3.3c-.2.7-.2 1.5 0 1.9s-.1 1.3.2 1.9c.4.6.6 2.6.2 3.2 0 0 .7.4.2 1.3 0 0-.4 1.5-.2 2.3s-.2.8-.5 1.4c-.2.6-.5.6-.5 1.3s-.2 1.1-.2 1.8-.1.7-.1 1.4 0 2 .1 2.6.6 1.7.6 1.7-.4 5.2.1 5.7c0 0-.7 1-.5 2.3 0 0-.4.8-.2 1.8 0 0 .6.5 0 1.2s0 1.3-.1 1.8-.7 1.8-.2 3.8c0 0 .6.6.2 1.3l.1 1.2s.6 1.7.2 2.3c0 0 1.1.7.5 2.7l-.4 1.7-.1 1.7-.2.8s0 .8 1.2 1l.7.1h.7l1.3-.1h1.9l1.3.1s.7-.8 1.5 0h1.2l.2.4s2-.1 3.1 0l.2.4s2.6.1 3.3-.2c0 0 3-.2 3.4-.2l.8-.4 1.1-.4s.7-.2 1.3.1c.6.4 1.3-.1 1.3-.1s1.2-.2 1.9 0l.8.2s.2-.5.8-.2c0 0-.4.5.7-.2 0 0 3-.4 3.4-.1.5.2 2.1.1 3.9 0 0 0 .1.8 3.3.4h3.3s1.9-.5 2.7-.2l.5-.2h1s.6-.4.7.1h1.5l1-.4s1.7-.4 2.5-.2c0 0 2-.5 4.8-.2l1.2.6c.8.4 1.3 0 1.3 0s1.3-.2 1.7 0c.4.2.9-.8 1.3-.1 0 0 5.4 0 7.3.2 0 0-.6.3 1.3.2 0 0 .8.6 1.1.8l1.9.3 1.6.5 1.3-.2h2.9l1.9.2h1.4l.5.6h5.1l2.5-.5 2.5.2 1.4-.3h3.3s2.5-.2 3.3.2l2.7-.2s2.5-.2 3.3.2 1.7-.2 2.9-.3c1.1-.2 1.4-.6 2.5 0s1.7-.2 1.7-.2h2.2s2.2-.6 2.9-.3c.6.3 1-.2 1.7-.6.8-.5 2.4-1.4 2.4-1.4l1-1.7s.3.5.2-5.2c0 0-.2-1.9-.2-4.8s-.2-2.1.2-4.9c0 0 .5-1.1.3-4.1 0 0-.8-1.7-.2-2.2s0-1.7 0-1.7-.8-1.7-.5-3.6c0 0-.8-2.9-.2-4.9v-2.2s.6-3 1.3-4.3l.2-1.9-.6-1.6.5-1.3.8-1.1s.2-.3 0-1.3c0 0-.2-1.3-.8-1.9l-.3-1.1-.2-1.3-.5-1.1.3-.5.2-2.5s-1-2.1.3-2.9 2.7-1.6 2.7-1.6 1.4-.3 1.3 1.9l-.2 2.1.5 1.7s1 2.2.6 3.2c-.3 1 .3 2.4.3 2.4l.3 2.4-.3 1.6v2.1l-.3 2.1.2.6-.2 1.3-.5 1.9.1 1.9-.3 1.4.2.8.2 2.5-1.4 2.9s-.3 1 0 1.9c.3 1 .6 3.2.2 4-.5.8-.3 2.7-.3 3.3 0 .6-.6 2.5-.6 2.5s0 4.1-.2 5.2-.3 3 0 3.6.6 3.8.6 3.8v2.1l-.3 2.5-1.6 2.1s-3.2.6-4.3 1.3-1.4 1.6-3.5 1.4-3.5-.3-4.1-.2c-.6.2-4.6.5-5.5.3-1-.2-2.1.2-3.5 1 0 0-1.1-.6-1.9-.6h-1.6s-1-.6-2.1 0c0 0-1 1.1-1.7 0 0 0-1.7.2-2.2.9 0 0-1 .8-2.4.5 0 0-.2-.7-2 0 0 0-1.4 0-3.6 1 0 0-3.6.7-4.2-.6 0 0-4-.5-4.5-.1l-1.9-.1-1.8-.1-2.3-.4h-.6l-1.2-.7h-2.3l-1.8-.1-1.1-.2-4.2-.1-1.1-.1s-1.4-.7-2-.4-.8.8-3 .6c-2.1-.2-3.2-.2-3.2-.2l-1.3.2-1.2-.2h-1.5l-1.8.4-1-.1-1.3-.4-1.1-.2H89l-2-.6s-1.8-.8-3.1-.1c0 0-.2.4-1.8.4 0 0-1.1-.1-1.8.4 0 0-.8.7-2.1.2-1.3-.5-.8-.4-.8-.4s-1-.2-1.9-.2c0 0-1.7-.1-2.3.6s-1.4-.1-2.6 0-2.6.2-2.6.2-.8.5-1.4.1-1 .1-3.2-.5-1.9 0-2.4.2-2.4 0-2.7-.1-2.5-.5-3-.4-2.3.7-2.3.7-1.8 1.2-3.7.7-1 0-3-.8-3.3-1.4-3.4-1.8c0 0-.4-.6-2.1-1.2 0 0-1.3-1.8-.2-2.4l.1-2.9-.2-1.7.2-4.6s-.7-3.7 0-5.8c0 0-1-2.7 1.2-7.6l.1-4.6-.4-3.2.4-2.5.5-2 .2-3.6-.6-.4.8-1.8.5-.8-.1-4.2.4-.7v-2.1l-.4-1.4.4-1.1v-2.9s1 0-.5-2.6l-.1-2.1-.5-.6.1-2.3s0-.7-.4-1.2v-3.2s.1-1.5-.6-1.9l-.1-1.8.4-.4s-.7-1.9-1.2-2.1c0 0-1.2.5.2-2.6v-1.7l.2-1.2.1-1.4v-1.2l-.5-.4.1-1.9-.5-.8v-2.1l.1-1.3.5-1s-.2-2.6-.2-3.6-.5-2.6-.5-2.6l-.1-1.1V63l-.4-1.5-.1-1.8-.2-1.1-.1-1.9.1-1-.5-1.3-.2-2.4v-1.2l-.6-1.3-.1-1.3s-1.1.1-.6-.8-.1-1.1-.1-1.1-1-6.3-.4-7l.4-.7v-1.2l.5-.1v-2l-.7-1.3s.1-5.2.6-6c0 0 .9-4 .7-5.5 0 0-.5-2.7 3.5-3.3 0 0 1.6-1.2 6.3-1.7 0 0 1-.6 1.6-1 0 0 .6-.4 1.3-.2l1-.5 2.1.1s.6.9 2.9.2c0 0 1-.7 2.3-.6 0 0 1-.4 1.7-.6 0 0 3.2-.2 5.5 0 0 0 1-.8 1.7-.3s1.3.2 2 0 1-1 1.7-1c.8 0 3.2-.3 4.8 0 1.7.3 3.5-.4 4.4.1s.5.6.5.6h1.4s-.1-.7 2.9-.4c0 0 1.3-.4 1.7-.4.4 0 1.4-.6 4.5-.2l.8.6s5.1-.2 5.4.4c0 0 3.3-.1 4.4.1 1 .2 1 .4 1 .4l.8.2.2.5 1.6-.1s2.9-1.1 3.2.2c0-.6 5.1-1.3 5.7-.6zm51.3 32.5l4-.3 1.1-.6.6.6 4.3.2.2-.6 1.9.2v-3.3s1.1-2.2 1.1-3.5-.8-.3-.3-1.7.2-1.6.2-1.6l-.5-.8-.2-2.5-.2-2.9s.2-1.4-.3-2.9-1.1-1.1-1-2.2c.2-1.1-.6-5.4.2-7.3l-1.9-2.1-1.3-.6-1-1.3-2.4-.2-2.1-.5s-.8.5-1.6-.3-1.9 0-1.9 0l-1.7.8-1.9.3-.8-.8-1.3-.3-1 .3H157s-.8 1-2.4.2c-1.6-.8-3.8-.8-3.8-.8l-3 .3-3.2.2-3.8.2-1.4-.2s-.5-.8-2.5 0c0 0-1.4 0-2.2.8l-1.3-.2s-1.3-1-1.7 1c-.5 1.9 0 3.6 0 3.6s2.4 1 2.7 2.1c0 0 2.9 1 3.8 1.1 0 0 2.2.2 3.5-.6 0 0 1.3-1 3.2 0 0 0 3.3.5 4.3-.2 1-.6 2.1-.5 2.4 0 .3.5 1.6.5 1.6.5h4.8s1.9-.8 2.5-.2 1.3-.2 1.3-.2 1.4-.2 2.1.3c.6.5 2.9.5 2.9.5s2.1-.5 2.2 2.9c.2 3.3.3 1.9.3 1.9v3.6s0 4.4-.2 6.3c-.2 1.9-.3 5.5-.8 6.3s-1.3 3.4-1.6 4.5z"/><path d="M158.2 52.4s3.2-1.7 5.2-1.7l1.6-1.3s1.3-1 2.5-.6c1.3.3.8-.2 1.1-.6s1.8-1.7 6.5-.1c4.8 1.5 2.7 1.2 2.7 1.2l1.9 1 1.8.5 2.3 1.2s2.6 1.4 5 5.6c0 0 1.2 1.9 1.4 3.3s1.7 2.1 2 4.9c.4 2.7.8 3.2.8 3.2s.7 2.6.1 4c0 0-.2.7.1 1.3 0 0 .4 4-2.5 8.2s-2.3 3.2-2.3 3.2-2.5 2.6-2.6 2.9c-.1.2-1.3 2.3-2.5 3.2-1.2 1-1.5 2.1-3.7 3.1 0 0-4.5 2.4-6.7 2.5 0 0-4.2.1-4.8.2 0 0-1.7.2-2.5-.2 0 0-3 .2-3.9-.2l-3-1s-1.9-.1-3.8-2.1c0 0-2-.8-2.4-2.3s-1.4-1.3-1.4-1.3l-.5-1.1s-2.9-2-5.6-9.1c0 0-1.1-1.8-1.3-3.2 0 0-.8-1.5-.6-2.1s-.4-1.3-.4-1.3v-1.3s0-1.3.5-1.5c0 0-.4-1.4.7-2.3 0 0-.2-1.8.8-2.9 0 0-.1-2.6 1.3-4.5 0 0 .2-1.8 3.8-3.9 0 0 3.6-2.1 3.7-2.5.1-.4 2.3-1.3 2.3-1.3l2.4-1.1zm-4.8-7.8v-1.2l-.5-.6-.7-.4-2.7-2.7-.8-1.3-1-.5-.6-1.1-.5-.7-4.2-4.2-1.2-.7s-3.6-5.3-6.3-6.9c-2.7-1.5-2.4-2.1-2.4-2.1s-1-1.1-2-2.3l-1.3-.8-.7-.8-1.4-1.9s-1.5-1.8-2.4-2.3c-.8-.5-1.9-1.8-1.9-1.8l-1.1-.7s-2.1-1.5-3.8 1.1l-.4 1.4.5 3.3s1.1 1.1 1 1.7c0 0 4.2 4.5 4.6 4.9.5.4 1.9 1.2 2.7 1.8 0 0 2.6 2.3 3.2 2.5.6.2 2.6 2.3 2.9 2.7.2.5 2 2.9 4.2 4.6 0 0 1.5 1.2 2 2.1 0 0 1.9 1 2.6 3.4 0 0 .5 1.5 1.7 1.4 0 0 1.4 0 1.7.6.2.6 1.7.6 2.4.4 0 0 3 1.9 3.7 2.5 0 0 .7.8 1.9 0 0 .2.5-.8.8-1.4zm27.7-3.9l.6-1.9s.4-2 1.9-2.5c0 0 .7-.6 1.1-1.2 0 0-.1-1 2.3-2.1 0 0 1-.8 1.4-1.7 0 0 2.1-3.3 3.2-4.2 0 0 2.1-3.1 4.3-4.9 0 0 .8-2.1 4.5-4.5 0 0 1.2-.8 1.3-1.3s1.4-2.3 3.1-3.4l2.1-2s0-1 2.7-3.7l.6-1.2s.8-1.3 2.5-2.5c0 0 2-3.6 4.9-3.6 0 0 1 .5 1 1.3s-.1 2.4-.1 2.4-.5 1.7-2.4 3.2c0 0-.7 2.1-1.5 3l-1.5 1.2s.4 1.7-1.2 2.5-1.8 2.3-1.8 2.3l-1 1.4s-1.2 1.5-1.8 2-1.2 2.1-2.5 3c0 0-.8 2-1.9 2.9 0 0-1 1.1-1.2 2 0 0-1.4 2.9-3.1 4.4 0 0-.2 1.2-1.4 1.9 0 0-1.1.7-1.4 1.8 0 0-1 1.4-1.4 1.7-.5.2-1.8 2.4-1.7 3.4 0 0-.2 1.5-1.3 2.3 0 0-2.4 2.1-2.4 2.6s-3.1.2-4.2-.4c-1.1-.6-2.4-1.2-2.7-1.9s-1-2.3-1-2.3zm18.3 35.5l.4-.8.4-1.5s.5-.8 2.6-.8l1.1-.5 1.3-.2s.8-.5 1.8-.2c0 0 .4-.8 1.9-.2l.7-.7s1.2-.4 2.1.1c0 0 .4-1.1 1.8-.6 0 0 1-.2 1.3-.5.4-.2 2-2.4 4.3-2l1.8-.5s.1-.7.6-.2h1.4l2.1-.7 2.7-1.1 1.8-1 1.5-.2s-.5-1.5 1.2-.4c0 0 1.3-1 2.7-.4l1.4-.4 3.3-1.1s4.8-2.4 3.2 3.3c0 0-.7 1.4-3.8 2.1l-3.2.2-1.2 1.2s-1.9-.2-3.7 1.3-3.3 1.3-4 1.5-3.8 1.4-5.7 2.3c0 0-2.6-.5-4.9 1.2 0 0-2.6 1.2-4 1.5-1.4.4-3.1-.2-4.6 1.2 0 0-2.1 1.1-4.4 2.5l-3.1-.1s-2.7-1.2-1.3-2.5l.5-1.8zm-9.1 21h4.2s2.6 1.1 3.2 2.7c0 0 3.7 2.7 3.9 3.7 0 0 4 2.5 4.8 3.2 0 0 5.8 3.4 6.8 4.9l2.3 1.7s1.4 0 1.9 1.2 1.3 1.1 1.8 1.3c.5.2 3.9 2.3 4.3 2.6.4.4 4.9 2.6 3.9 4.6 0 0 .5 2.6-4.5 1.8 0 0-2.9-1.5-4.4-1.7l-1.3-.5-3.2-1.9s-1.7-1.7-2.3-1.8c-.6-.1-1.7-1.1-1.7-1.1l-1.1-1.1-1.3-.6-1.2-1.1-1.2-1-1.2-.7s-1.1-.6-2.5-2.5c0 0-2-1.4-3.7-3 0 0-1.3-.5-2-1.5 0 0-2.9-.1-3.3-1.2l-3-1.8s-1.8-3.6-.8-4.2c-.1.3.4-1.2 1.6-2zm-19.1 15.1s.7-1.3 1.4-1.3c0 0 .5-2.7-1.7-2.9 0 0-2.7-.7-3.7-.1 0 0-.4 1-1.7 1.3 0 0-1.4-.2-1.7 2.9 0 0-.8 1.2-1.1 1.9 0 0 1 .5 0 2.3l-.4 1.4v1.9s-.4 1.8.1 3.6c0 0-.6.6-1.1 2.7 0 0-1 3.6-1.1 4.4s-.2 3.4-.1 4.6c0 0-.1 1.5 2.4 2l1.3-.6 1.3-.2s.8-9.1 3.1-12.7c0 0 1-3.4 1.2-5.3.3 0 1.4-4.9 1.8-5.9zm-31.3-32.5l-.7 1.1-1.8 2-2.3.2-3.2.1-.1.7s-2.4.1-3.4 1.8c0 0-1.9 1.8-3.7 2.4l-2.1 1.4-1.9.4s-1.9-.1-2.6.5-2.5 1.3-3 1.4-.2.8-2 .4l-2-.4s-1.8-.7-1.8-1.4-.7-1.2-.7-1.2-1.7-3.8 1.9-4c0 0 .7-1 5.2-1 0 0 .2 1.1 2.1-1.2 0 0 2.5-2.3 3.1-2.4s2.7-1.1 2.7-1.1l2.9-1.8 2.6-.6s1.4-1.5 4.3-.5l1.4-.6s1.8-.6 2.7.4c1 1 2 .5 2.4 3.4z" fill="#ffed00" stroke="#fff" stroke-width="1.5"/><path d="M44.9 199v-24.4h15.6v3.3H48.6v7.1h10.1v3.3H48.6v7.3h11.9v3.3H44.9v.1zm38.4 0v-16.3l-5.6 11.9H75l-5.7-11.9V199h-3.7v-24.4h3.7l7.1 15.2 7-15.2H87V199h-3.7zm27.8 0v-16.3l-5.6 11.9h-2.7L97 182.8v16.3h-3.7v-24.4H97l7.1 15.2 7-15.2h3.7v24.4l-3.7-.1zm24 0l-1.7-4.9h-9.6l-1.7 4.9h-3.9l8.9-24.4h3L139 199h-3.9zm-6.4-18.8l-3.8 10.8h7.5l-3.7-10.8zm22.2 19c-5 0-8.7-3.4-8.7-8.4v-16.1h3.7v16c0 3.2 2 5.3 5 5.3s5.1-2 5.1-5.3v-16h3.7v16.1c-.1 5.1-3.9 8.4-8.8 8.4zm-5.3-27v-3.7h3.1v3.7h-3.1zm7.4 0v-3.7h3.1v3.7H153zm19.1 27c-3.7 0-6.3-.9-8.6-3.2l2.5-2.4c1.8 1.8 3.7 2.3 6.2 2.3 3.2 0 5-1.4 5-3.7 0-1.1-.3-2-1-2.5-.6-.6-1.2-.8-2.7-1l-2.9-.4c-2-.3-3.6-1-4.6-1.9-1.2-1.1-1.8-2.7-1.8-4.7 0-4.2 3.1-7.1 8.1-7.1 3.2 0 5.5.8 7.6 2.8l-2.4 2.3c-1.5-1.4-3.3-1.9-5.3-1.9-2.9 0-4.4 1.6-4.4 3.8 0 .9.3 1.7.9 2.3.6.5 1.6 1 2.7 1.1l2.8.4c2.3.3 3.5.9 4.5 1.8 1.3 1.2 2 2.9 2 5 .1 4.4-3.5 7-8.6 7zM47.4 204v9.7h10.7v1.6H47.4V226h-1.8v-23.6H60v1.6H47.4zm34 22.1l-5.7-10.9h-6.5v10.9h-1.8v-23.7h9c3.9 0 6.8 2.2 6.8 6.4 0 3.5-2.1 5.8-5.5 6.4l5.7 10.9h-2zM76.2 204h-7v9.6h7c3 0 5.2-1.5 5.2-4.8 0-3.2-2.2-4.8-5.2-4.8zm29.6 22.1l-2.1-5.8h-11l-2.1 5.8h-1.9l8.7-23.7H99l8.7 23.7h-1.9zm-7.5-21.3l-5 13.9h9.9l-4.9-13.9zm31.8 21.3l-13.7-20.6v20.6h-1.8v-23.7h1.8l13.7 20.5v-20.5h1.8v23.7h-1.8zm18.9.2c-2.2 0-4.4-.9-5.9-2.4-2.2-2.2-2.2-4.3-2.2-9.6 0-5.4 0-7.5 2.2-9.6 1.6-1.6 3.7-2.4 5.9-2.4 4.2 0 7.3 2.6 8.1 6.9h-1.8c-.7-3.3-3-5.3-6.2-5.3-1.7 0-3.3.6-4.5 1.8-1.7 1.7-1.8 3.5-1.8 8.6s.1 6.9 1.8 8.6c1.2 1.2 2.8 1.8 4.5 1.8 3.2 0 5.6-2.1 6.3-5.3h1.8c-.9 4.3-4 6.9-8.2 6.9zm16.9-.2v-23.7h14.4v1.6h-12.6v9.3h10.7v1.6h-10.7v9.5h12.6v1.6h-14.4v.1z"/></svg>