<svg xmlns="http://www.w3.org/2000/svg" width="100" height="13.392"><g fill="#2c2a29"><path data-name="Tracé 160303" d="M3.569 9.455h1.767c3.2 0 5.537-1.6 5.537-4.636v-.037c0-2.851-2.1-4.525-5.354-4.525H0v12.877h3.569zm0-6.2h1.672c1.287 0 2.061.589 2.061 1.693v.037c0 1.012-.773 1.674-2.042 1.674H3.569z"/><path data-name="Tracé 160304" d="M21.972 10.099h-6.917V8.057h6.181V5.243h-6.181v-1.95h6.826V.257H11.523v12.877h10.449z"/><path data-name="Tracé 160305" d="M81.596 9.455h1.771c3.2 0 5.537-1.6 5.537-4.636v-.037c0-2.851-2.1-4.525-5.354-4.525h-5.523v12.877h3.569zm0-6.2h1.671c1.287 0 2.061.589 2.061 1.693v.037c0 1.012-.773 1.674-2.042 1.674h-1.693z"/><path data-name="Tracé 160306" d="M100 10.099h-6.914V8.057h6.181V5.243h-6.181v-1.95h6.826V.257H89.551v12.877H100z"/><path data-name="Tracé 160307" d="M26.438 9.234h1.564l2.593 3.9h4.121l-3.072-4.489a4.071 4.071 0 002.649-3.955v-.037a3.992 3.992 0 00-1.14-3 5.629 5.629 0 00-4.194-1.4H22.87v12.881h3.569zm0-5.887h2.336c1.2 0 1.932.515 1.932 1.527v.037c0 .938-.7 1.527-1.914 1.527h-2.355z"/><path data-name="Rectangle 4313" d="M35.245.257h3.586v12.877h-3.586z"/><path data-name="Tracé 160308" d="M45.486 10.394a6.633 6.633 0 01-4.18-1.546l-1.987 2.373a9 9 0 006.034 2.134c3.128 0 5.206-1.563 5.206-4.194v-.033c0-2.41-1.84-3.366-4.8-4.011-1.785-.4-2.226-.662-2.226-1.251v-.038c0-.46.422-.828 1.287-.828a6.458 6.458 0 013.606 1.269l1.784-2.52a8.1 8.1 0 00-5.3-1.71c-3.091 0-4.986 1.729-4.986 4.121v.037c0 2.649 2.116 3.422 4.858 4.047 1.747.4 2.171.7 2.171 1.233v.037c.006.549-.509.88-1.467.88z"/><path data-name="Tracé 160309" d="M57.534 13.392a6.492 6.492 0 005.7-2.906l-2.686-1.914a3.515 3.515 0 01-2.906 1.564 3.185 3.185 0 01-3.072-3.44v-.037a3.185 3.185 0 013.072-3.4 3.448 3.448 0 012.815 1.509l2.686-2.079A6.305 6.305 0 0057.679.003a6.615 6.615 0 00-6.787 6.7v.037a6.539 6.539 0 006.642 6.652z"/><path data-name="Tracé 160310" d="M65.657 13.135h9.385a6.57 6.57 0 002.262-4.978V8.12a6.94 6.94 0 00-13.87.037v.037a6.528 6.528 0 002.223 4.941zm1.438-5.015a3.282 3.282 0 013.257-3.44 3.346 3.346 0 013.311 3.477v.037a3.285 3.285 0 01-3.274 3.44 3.343 3.343 0 01-3.294-3.476z"/></g></svg>